# xmcd
#
# Track frame offsets:
#	183
#	12578
#	31970
#	54985
#	70178
#	91753
#	108458
#	127015
#	139880
#	157898
#	173655
#	196840
#
# Disc length: 2922 seconds
#
# Revision: 2
# Processed by: cddbd v1.5.1PL0 Copyright (c) Steve Scherf et al.
# Submitted via: audiograbber 1.83.01
#
DISCID=990b680c
DTITLE=Cesar Camargo Mariano - Solo Brasileiro
DYEAR=1900
DGENRE=
TTITLE0=Pesqueiro de Sao Jose 
TTITLE1=Da cor do pecado
TTITLE2=Tem do
TTITLE3=Minha magoa
TTITLE4=Linda flor
TTITLE5=Por toda minha vida
TTITLE6=Castle oaks
TTITLE7=Cristal
TTITLE8=Negrinho do pastoreiro
TTITLE9=O tempo e o vento
TTITLE10=Milagre dos peixes
TTITLE11=Samambaia
EXTD=
EXTT0=
EXTT1=
EXTT2=
EXTT3=
EXTT4=
EXTT5=
EXTT6=
EXTT7=
EXTT8=
EXTT9=
EXTT10=
EXTT11=
PLAYORDER=
